# xmcd CD database file
#
# Track frame offsets:
#	150
#	3992
#	21511
#	47586
#	50979
#	65829
#	80509
#	100939
#	136547
#	158082
#
# Disc length: 2289 seconds
#
# Revision: 0
# Processed by: cddbd v1.5.1PL0 Copyright (c) Steve Scherf et al.
# Submitted via: CDex 1.51
#
DISCID=8008ef0a
DTITLE=GALEON - CANNONS
DYEAR=2005
DGENRE=Melodic Power Metal
TTITLE0=処女航海
TTITLE1=凶弾
TTITLE2=絆
TTITLE3=虐待
TTITLE4=Heaven's Judgement
TTITLE5=DESIRE
TTITLE6=Ever Dark
TTITLE7=ゆりかご
TTITLE8=Time is stream,time is scream
TTITLE9=月光
EXTD=YEAR: 2005
EXTT0=
EXTT1=
EXTT2=
EXTT3=
EXTT4=
EXTT5=
EXTT6=
EXTT7=
EXTT8=
EXTT9=
PLAYORDER=
